<svg width="392" height="279" viewBox="0 0 392 279" fill="none" xmlns="http://www.w3.org/2000/svg">
<path d="M324.637 91.5V123.8C324.637 126.467 325.203 128.367 326.337 129.5C327.47 130.567 329.437 131.1 332.237 131.1H338.937V138.8H330.737C325.67 138.8 321.87 137.633 319.337 135.3C316.803 132.967 315.537 129.133 315.537 123.8V91.5H308.437V84H315.537V70.2H324.637V84H338.937V91.5H324.637Z" fill="white"/>
<path d="M276.272 83C282.939 83 288.339 85.0333 292.472 89.1C296.605 93.1 298.672 98.9 298.672 106.5V138.8H289.672V107.8C289.672 102.333 288.305 98.1667 285.572 95.3C282.839 92.3667 279.105 90.9 274.372 90.9C269.572 90.9 265.739 92.4 262.872 95.4C260.072 98.4 258.672 102.767 258.672 108.5V138.8H249.572V84H258.672V91.8C260.472 89 262.905 86.8333 265.972 85.3C269.105 83.7667 272.539 83 276.272 83Z" fill="white"/>
<path d="M234.207 84V138.8H225.107V130.7C223.374 133.5 220.94 135.7 217.807 137.3C214.74 138.833 211.34 139.6 207.607 139.6C203.34 139.6 199.507 138.733 196.107 137C192.707 135.2 190.007 132.533 188.007 129C186.074 125.467 185.107 121.167 185.107 116.1V84H194.107V114.9C194.107 120.3 195.474 124.467 198.207 127.4C200.94 130.267 204.674 131.7 209.407 131.7C214.274 131.7 218.107 130.2 220.907 127.2C223.707 124.2 225.107 119.833 225.107 114.1V84H234.207Z" fill="white"/>
<path d="M145.542 139.7C140.409 139.7 135.742 138.533 131.542 136.2C127.409 133.867 124.142 130.567 121.742 126.3C119.409 121.967 118.242 116.967 118.242 111.3C118.242 105.7 119.442 100.767 121.842 96.5C124.309 92.1667 127.642 88.8667 131.842 86.6C136.042 84.2667 140.742 83.1 145.942 83.1C151.142 83.1 155.842 84.2667 160.042 86.6C164.242 88.8667 167.542 92.1333 169.942 96.4C172.409 100.667 173.642 105.633 173.642 111.3C173.642 116.967 172.376 121.967 169.842 126.3C167.376 130.567 164.009 133.867 159.742 136.2C155.476 138.533 150.742 139.7 145.542 139.7ZM145.542 131.7C148.809 131.7 151.876 130.933 154.742 129.4C157.609 127.867 159.909 125.567 161.642 122.5C163.442 119.433 164.342 115.7 164.342 111.3C164.342 106.9 163.476 103.167 161.742 100.1C160.009 97.0333 157.742 94.7667 154.942 93.3C152.142 91.7667 149.109 91 145.842 91C142.509 91 139.442 91.7667 136.642 93.3C133.909 94.7667 131.709 97.0333 130.042 100.1C128.376 103.167 127.542 106.9 127.542 111.3C127.542 115.767 128.342 119.533 129.942 122.6C131.609 125.667 133.809 127.967 136.542 129.5C139.276 130.967 142.276 131.7 145.542 131.7Z" fill="white"/>
<path d="M57.5 111.3C57.5 105.633 58.6333 100.7 60.9 96.5C63.1667 92.2333 66.3 88.9333 70.3 86.6C74.3667 84.2667 79 83.1 84.2 83.1C90.9333 83.1 96.4667 84.7333 100.8 88C105.2 91.2667 108.1 95.8 109.5 101.6H99.7C98.7667 98.2667 96.9333 95.6333 94.2 93.7C91.5333 91.7667 88.2 90.8 84.2 90.8C79 90.8 74.8 92.6 71.6 96.2C68.4 99.7333 66.8 104.767 66.8 111.3C66.8 117.9 68.4 123 71.6 126.6C74.8 130.2 79 132 84.2 132C88.2 132 91.5333 131.067 94.2 129.2C96.8667 127.333 98.7 124.667 99.7 121.2H109.5C108.033 126.8 105.1 131.3 100.7 134.7C96.3 138.033 90.8 139.7 84.2 139.7C79 139.7 74.3667 138.533 70.3 136.2C66.3 133.867 63.1667 130.567 60.9 126.3C58.6333 122.033 57.5 117.033 57.5 111.3Z" fill="white"/>
<path d="M36.4 0V278.8H0V0H36.4Z" fill="#C084FC"/>
<path d="M392 272.2H362.4L362.4 196.2L113.2 196.2V159.8L362.4 159.8V83.4H392L392 272.2Z" fill="#C084FC"/>
</svg>
